<!DOCTYPE svg PUBLIC "-//W3C//DTD SVG 1.1//EN" "http://www.w3.org/Graphics/SVG/1.1/DTD/svg11.dtd">
<!-- Uploaded to: SVG Repo, www.svgrepo.com, Transformed by: SVG Repo Mixer Tools -->
<svg height="800px" width="800px" version="1.1" id="Layer_1" xmlns="http://www.w3.org/2000/svg" xmlns:xlink="http://www.w3.org/1999/xlink" viewBox="0 0 512.002 512.002" xml:space="preserve" fill="#000000">
<g id="SVGRepo_bgCarrier" stroke-width="0"/>
<g id="SVGRepo_tracerCarrier" stroke-linecap="round" stroke-linejoin="round"/>
<g id="SVGRepo_iconCarrier"> <circle style="fill:#81d4fa;" cx="256" cy="256" r="256"/> <path style="fill:#29b6f6;" d="M510.174,225.411L354.732,69.968c-31.897,8.647-71.368,11.231-74.595,51.569 c0,24.135,20.687,46.545,3.448,68.956c-36.202,44.822-72.404,84.471-112.054,125.845c-20.687,22.411-37.926,43.098-62.061,62.061 c-10.771,7.18-18.218,17.684-25.803,28.05l93.003,93.003c24.979,8.135,51.638,12.55,79.332,12.55c141.384,0,256-114.616,256-256 C512,245.646,511.369,235.442,510.174,225.411z"/> <path style="fill:#1B2F60;" d="M324.823,163.654l-23.388,70.165L129.215,406.04c-12.917,12.917-33.859,12.917-46.776,0l0,0 c-12.917-12.917-12.917-33.859,0-46.776l213.326-213.328L324.823,163.654z"/> <path style="fill:#386895;" d="M348.212,187.042l-70.163,23.388l-172.22,172.222c-12.917,12.917-12.917,33.859,0,46.776l0,0 c12.917,12.917,33.859,12.917,46.776,0l213.326-213.326L348.212,187.042z"/> <path style="fill:#263A7A;" d="M310.57,175.633c-15.808,0.002-31.615-6.016-43.649-18.051c-24.069-24.071-24.067-63.235,0-87.304 v0.002v-0.002c11.659-11.66,27.162-18.08,43.651-18.08c16.487,0,31.992,6.422,43.651,18.08c11.659,11.659,18.08,27.162,18.08,43.651 c0,16.487-6.422,31.991-18.08,43.649C342.188,169.617,326.378,175.633,310.57,175.633z M310.572,93.572 c-5.437,0-10.55,2.117-14.396,5.961v0.002c-7.937,7.937-7.937,20.854,0,28.793c3.844,3.843,8.956,5.961,14.395,5.961 s10.552-2.119,14.398-5.965s5.963-8.956,5.963-14.395s-2.119-10.55-5.963-14.396S316.011,93.572,310.572,93.572z"/> <path style="fill:#335099;" d="M396.566,261.629c-15.808,0.002-31.615-6.016-43.649-18.051c-24.069-24.071-24.067-63.235,0-87.304 v0.002c11.659-11.662,27.162-18.084,43.651-18.084c16.487,0,31.992,6.423,43.651,18.082c11.661,11.661,18.08,27.162,18.08,43.649 c0,16.489-6.422,31.992-18.08,43.651C428.184,255.61,412.374,261.629,396.566,261.629z M396.567,179.565 c-5.437,0-10.55,2.119-14.396,5.963v0.002c-7.937,7.937-7.937,20.854,0,28.793c3.844,3.843,8.956,5.961,14.395,5.961 c5.439,0,10.552-2.119,14.398-5.965s5.963-8.956,5.963-14.396c0-5.437-2.119-10.549-5.963-14.395 C407.119,181.682,402.004,179.565,396.567,179.565z"/> <circle style="fill:#29b6f6;" cx="277.256" cy="253.138" r="12.541"/> </g>
</svg>